<?xml version="1.0" encoding="utf-8"?>
<!-- Generator: Adobe Illustrator 20.0.0, SVG Export Plug-In . SVG Version: 6.00 Build 0)  -->
<svg version="1.1" id="Layer_1" xmlns="http://www.w3.org/2000/svg" xmlns:xlink="http://www.w3.org/1999/xlink" x="0px" y="0px"
	 viewBox="0 0 120 73.3" style="enable-background:new 0 0 120 73.3;" xml:space="preserve">
<style type="text/css">
	.st0{fill:#999;}
</style>
<g>
	<g>
		<path class="st0" d="M9.6,30.3v31.6H2.4V30.3H9.6z"/>
		<path class="st0" d="M12.9,46.3c0-2.9-0.1-5.3-0.2-7.3h6l0.3,3.1h0.1c1-1.4,3-3.6,7-3.6c3,0,5.3,1.5,6.3,3.9h0.1
			c0.9-1.1,1.9-2.1,3-2.8c1.2-0.8,2.7-1.1,4.4-1.1c4.4,0,7.8,3.1,7.8,10v13.5h-7V49.4c0-3.4-1.1-5.3-3.4-5.3c-1.6,0-2.8,1.1-3.3,2.5
			c-0.2,0.5-0.3,1.2-0.3,1.8v13.4h-7V49.1c0-2.9-1.1-4.9-3.3-4.9c-1.8,0-2.9,1.4-3.4,2.6c-0.2,0.6-0.3,1.2-0.3,1.8V62h-7L12.9,46.3
			L12.9,46.3z"/>
		<path class="st0" d="M63.5,61.9l-0.4-2.3H63c-1.5,1.8-3.8,2.8-6.6,2.8c-4.7,0-7.4-3.4-7.4-7.1c0-5.9,5.4-8.8,13.5-8.8v-0.3
			c0-1.2-0.7-3-4.2-3c-2.4,0-4.8,0.8-6.3,1.7l-1.3-4.6c1.6-0.9,4.8-2,8.9-2c7.7,0,10.1,4.5,10.1,9.9v7.9c0,2.2,0.1,4.3,0.3,5.6h-6.4
			V61.9z M62.6,51.1c-3.7,0-6.7,0.9-6.7,3.6c0,1.8,1.2,2.7,2.8,2.7c1.8,0,3.3-1.1,3.7-2.6c0.1-0.4,0.1-0.8,0.1-1.2L62.6,51.1
			L62.6,51.1z"/>
		<path class="st0" d="M94.3,39c-0.1,1.4-0.2,3.4-0.2,6.8v12.8c0,4.4-0.9,8-3.4,10.3c-2.5,2.2-5.9,2.8-9.4,2.8c-3,0-6.2-0.6-8.2-1.8
			l1.4-5.4c1.4,0.9,4,1.7,6.7,1.7c3.4,0,5.9-1.8,5.9-6v-1.5h-0.1c-1.3,1.9-3.5,3-6.2,3c-5.7,0-9.7-4.6-9.7-11.2
			c0-7.4,4.8-12.1,10.4-12.1c3.2,0,5.1,1.3,6.3,3.3H88l0.2-2.7L94.3,39L94.3,39z M87.1,48.3c0-0.5,0-1-0.1-1.3
			c-0.5-1.9-1.9-3.2-3.8-3.2c-2.6,0-4.7,2.4-4.7,6.5c0,3.4,1.7,6.1,4.7,6.1c1.8,0,3.3-1.2,3.7-2.9c0.2-0.5,0.2-1.2,0.2-1.9
			L87.1,48.3L87.1,48.3z"/>
		<path class="st0" d="M102.6,52.7c0.2,3,3.2,4.4,6.5,4.4c2.4,0,4.4-0.3,6.3-1l1,4.8c-2.4,1-5.2,1.4-8.3,1.4
			c-7.8,0-12.3-4.5-12.3-11.7c0-5.8,3.6-12.3,11.6-12.3c7.4,0,10.2,5.7,10.2,11.5c0,1.2-0.1,2.3-0.2,2.8H102.6z M111,47.8
			c0-1.7-0.8-4.7-4-4.7c-3,0-4.2,2.7-4.4,4.7H111z"/>
	</g>
	<g>
		<path class="st0" d="M14.8,3.8c1.8-0.4,5.2-0.7,8.4-0.7c4.2,0,6.9,0.6,9,2c2,1.1,3.3,3.3,3.3,5.9c0,2.9-1.8,5.6-5.3,6.8v0.1
			c3.4,0.9,6.4,3.4,6.4,7.8c0,2.8-1.2,5-3,6.5c-2.3,2-5.9,3-11.8,3c-3.2,0-5.6-0.2-7.1-0.4L14.8,3.8L14.8,3.8z M20.6,16.3h3
			c4,0,6.2-1.9,6.2-4.6c0-3-2.3-4.4-5.9-4.4c-1.7,0-2.7,0.1-3.3,0.2L20.6,16.3L20.6,16.3z M20.6,30.8c0.8,0.1,1.7,0.1,3.1,0.1
			c3.7,0,7.1-1.3,7.1-5.3c0-3.6-3.3-5.2-7.2-5.2h-2.9L20.6,30.8L20.6,30.8z"/>
		<path class="st0" d="M38.8,19.5c0-3.1,0-5.4-0.2-7.4h5l0.2,4.3h0.1c1.1-3.2,3.8-4.8,6.3-4.8c0.6,0,0.9,0,1.3,0.1v5.4
			C51,17,50.5,17,49.8,17c-2.7,0-4.7,1.7-5.2,4.4c-0.1,0.5-0.1,1.1-0.1,1.7V35h-5.7V19.5z"/>
		<path class="st0" d="M70,29.5c0,2.1,0.1,4.1,0.4,5.5h-5.2l-0.4-2.5h-0.1c-1.3,1.8-3.7,3.1-6.8,3.1c-4.6,0-7.2-3.4-7.2-6.8
			c0-5.7,5.1-8.7,13.6-8.6v-0.4c0-1.5-0.6-4-4.7-4c-2.3,0-4.6,0.7-6.1,1.7l-1.1-3.7c1.7-1.1,4.7-2,8.2-2c7.3,0,9.5,4.7,9.5,9.7
			L70,29.5L70,29.5z M64.4,23.8c-4.1,0-7.9,0.8-7.9,4.3c0,2.3,1.4,3.3,3.3,3.3c2.4,0,4-1.5,4.6-3.2c0.1-0.4,0.1-0.9,0.1-1.2V23.8z"
			/>
		<path class="st0" d="M73.1,29.6c1.2,0.8,3.7,1.7,5.8,1.7c2.5,0,3.6-1.1,3.6-2.6c0-1.5-1-2.3-3.7-3.4c-4.5-1.5-6.3-3.9-6.3-6.7
			c0-4,3.4-7.1,8.6-7.1c2.5,0,4.8,0.6,6.1,1.3l-1.1,4c-1-0.6-2.8-1.3-4.8-1.3c-2.1,0-3.2,1.1-3.2,2.4c0,1.4,1.1,2.1,4,3.2
			c4.2,1.4,6,3.5,6.1,7c0,4.2-3.3,7.2-9.3,7.2c-2.8,0-5.3-0.7-7-1.6L73.1,29.6z"/>
		<path class="st0" d="M92.9,8.8c-1.9,0-3.2-1.4-3.2-3.1c0-1.8,1.3-3.2,3.3-3.2c2,0,3.2,1.3,3.3,3.2C96.3,7.4,94.9,8.8,92.9,8.8
			L92.9,8.8z M90.1,35V12.1h5.7V35H90.1z"/>
		<path class="st0" d="M99.3,1.5h5.7v33.3h-5.7V1.5z"/>
	</g>
</g>
</svg>
